<svg xmlns="http://www.w3.org/2000/svg" viewBox="0 0 760 150" role="img" aria-labelledby="title desc">
  <title id="title">OpenBack</title>
  <desc id="desc">OpenBack territorial strategy wordmark</desc>
  <defs>
    <linearGradient id="shield" x1="20" y1="18" x2="128" y2="132" gradientUnits="userSpaceOnUse">
      <stop stop-color="#153658"/>
      <stop offset="1" stop-color="#061321"/>
    </linearGradient>
    <linearGradient id="cyan" x1="30" y1="35" x2="91" y2="111" gradientUnits="userSpaceOnUse">
      <stop stop-color="#65e7ff"/>
      <stop offset="1" stop-color="#0aa8f0"/>
    </linearGradient>
    <linearGradient id="green" x1="84" y1="39" x2="122" y2="112" gradientUnits="userSpaceOnUse">
      <stop stop-color="#6af394"/>
      <stop offset="1" stop-color="#18bd63"/>
    </linearGradient>
    <linearGradient id="word" x1="166" y1="30" x2="704" y2="125" gradientUnits="userSpaceOnUse">
      <stop stop-color="#f4fbff"/>
      <stop offset=".57" stop-color="#a9eaff"/>
      <stop offset="1" stop-color="#57dfa0"/>
    </linearGradient>
  </defs>
  <g transform="translate(8 5) scale(1.08)">
    <path d="M64 5 113 33v62l-49 28L15 95V33Z" fill="#020812" opacity=".6"/>
    <path d="M64 8 110 35v58l-46 27-46-27V35Z" fill="url(#shield)" stroke="#47dfff" stroke-width="4" stroke-linejoin="round"/>
    <path fill-rule="evenodd" d="M39 32C24 32 17 44 17 64s7 32 22 32 22-12 22-32-7-32-22-32Zm0 14c-6 0-9 6-9 18s3 18 9 18 9-6 9-18-3-18-9-18Z" fill="url(#cyan)"/>
    <path d="M58 32h20c16 0 25 6 25 17 0 7-4 12-10 15 7 3 11 8 11 15 0 11-8 17-25 17H58Zm14 13v13h7c7 0 10-2 10-7 0-4-3-6-10-6Zm0 25v13h8c7 0 10-2 10-7 0-4-3-6-10-6Z" fill="url(#green)"/>
    <path d="M45 64H31m0 0 6-6m-6 6 6 6" fill="none" stroke="#f2fcff" stroke-width="4" stroke-linecap="round" stroke-linejoin="round"/>
  </g>
  <text x="158" y="100" fill="url(#word)" font-family="Arial Black, Arial, sans-serif" font-size="79" font-style="italic" font-weight="900" letter-spacing="-5">OPENBACK</text>
  <path d="M166 117h511" stroke="#2fcaf2" stroke-width="3"/>
  <path d="M681 117h43" stroke="#55ed92" stroke-width="3"/>
  <text x="166" y="139" fill="#7fa8c3" font-family="Arial, sans-serif" font-size="14" font-weight="700" letter-spacing="6">TERRITORIAL STRATEGY</text>
</svg>
