<svg xmlns="http://www.w3.org/2000/svg" viewBox="0 0 96 96" role="img" aria-labelledby="title">
  <title id="title">OpenBack</title>
  <circle cx="48" cy="48" r="46" fill="#06182a" stroke="#42dcff" stroke-width="4"/>
  <path fill-rule="evenodd" d="M29 19C15 19 8 30 8 48s7 29 21 29 21-11 21-29-7-29-21-29Zm0 13c-6 0-9 5-9 16s3 16 9 16 9-5 9-16-3-16-9-16Z" fill="#35cef8"/>
  <path d="M45 19h19c15 0 24 6 24 17 0 6-3 11-9 14 7 3 10 8 10 14 0 11-9 17-25 17H45Zm13 12v13h6c7 0 10-2 10-7s-3-6-10-6Zm0 25v13h7c7 0 10-2 10-7 0-4-3-6-10-6Z" fill="#36df79"/>
</svg>
