<svg xmlns="http://www.w3.org/2000/svg" viewBox="0 0 96 96" role="img" aria-labelledby="title">
  <title id="title">OpenBack</title>
  <path d="M48 7 84 28v40L48 89 12 68V28Z" fill="#071a2d" stroke="#42dcff" stroke-width="5" stroke-linejoin="round"/>
  <path fill-rule="evenodd" d="M32 27c-12 0-18 8-18 21s6 21 18 21 18-8 18-21-6-21-18-21Zm0 11c-5 0-7 3-7 10s2 10 7 10 7-3 7-10-2-10-7-10Z" fill="#32c9f5"/>
  <path d="M48 27h15c12 0 19 4 19 12 0 5-3 8-7 10 5 2 8 5 8 10 0 8-7 11-20 11H48Zm11 9v9h5c5 0 7-1 7-5 0-3-2-4-7-4Zm0 18v8h6c5 0 7-1 7-4s-2-4-7-4Z" fill="#35dc78"/>
</svg>
